<?xml version="1.0" encoding="utf-8"?>
<!-- Generator: Adobe Illustrator 16.0.0, SVG Export Plug-In . SVG Version: 6.00 Build 0)  -->
<!DOCTYPE svg PUBLIC "-//W3C//DTD SVG 1.0//EN" "http://www.w3.org/TR/2001/REC-SVG-20010904/DTD/svg10.dtd">
<svg version="1.0" id="Layer_1" xmlns="http://www.w3.org/2000/svg" xmlns:xlink="http://www.w3.org/1999/xlink" x="0px" y="0px"
	 width="100px" height="100px" viewBox="0 0 100 100" enable-background="new 0 0 100 100" xml:space="preserve">
<path fill="#90A4AE" d="M46.667,50c0-19.108,14.924-34.604,33.333-34.604C74.112,11.984,67.294,10,59.999,10
	C37.91,10,20,27.91,20,50c0,22.094,17.91,40,39.999,40c7.295,0,14.113-1.982,20.001-5.395C61.591,84.605,46.667,69.114,46.667,50z
	 M26.667,50c0-17.078,12.91-31.198,29.481-33.111C46.354,24.417,40.001,36.458,40.001,50c0,13.541,6.353,25.584,16.145,33.111
	C39.577,81.193,26.667,67.077,26.667,50z"/>
</svg>
