<svg xmlns="http://www.w3.org/2000/svg"
xmlns:xlink="http://www.w3.org/1999/xlink" id="svg1929"
version="1.1" viewBox="0 0 168 168">
  <path id="phone-base"
  d="M106.284 79.85s-4-4.636-6.747-4.636h-2.285V64.536a5.41 5.41 0 0 0-5.408-5.408 5.41 5.41 0 0 0-5.408 5.408v10.678h-13.75V64.536a5.41 5.41 0 0 0-5.408-5.408 5.41 5.41 0 0 0-5.408 5.408v10.678h-2.29c-2.747 0-6.744 4.637-6.744 4.637L23.25 107.476c-1.133 1.06-2.055 2.992-2.055 4.32v34.133a9.936 9.936 0 0 0 9.936 9.932h96.863a9.933 9.933 0 0 0 9.932-9.932v-34.133c0-1.325-.921-3.26-2.055-4.32zm18.122 62.49H34.715v-27.073l27.347-25.532.479-.437.478-.553a.039.039 0 0 0 .01-.012h33.06l.433.5.532.498 27.35 25.534v27.075z"
  fill="#7da799" />
  <path id="phone-receiver"
  d="M89.685 19.584L47.232 30.959c-21.634 5.797-34.478 28.045-28.68 49.686l1.403 5.234a2.764 2.764 0 0 0 3.389 1.952l24.059-6.447a6.76 6.76 0 0 0 4.781-8.28L48.58 59.646a6.76 6.76 0 0 1 4.78-8.28L94.583 40.32a6.764 6.764 0 0 1 8.28 4.78l3.608 13.459a6.757 6.757 0 0 0 8.279 4.779l24.063-6.447a2.761 2.761 0 0 0 1.955-3.386l-1.403-5.233c-5.796-21.641-28.039-34.486-49.678-28.688z"
  fill="#7da799" />
  <path id="left-exclamation-stroke"
  d="M69.739 102.082q0 1.003-.648 3.008l-5.485 17.512q-.825 2.89-3.478 2.89-2.36 0-2.36-2.477v-.412l2.065-17.513q.117-1.298.295-1.947.412-2.004 2.063-3.361 1.652-1.355 3.715-1.355 1.77 0 2.771 1.06 1.062 1.003 1.062 2.595z" fill="#7da799"/>
  <path id="left-exclamation-dot"
  d="M63.016 132.214q0 1.768-1.415 3.242-1.414 1.474-3.42 1.474h-1q-1.417 0-2.36-.883-.886-.885-.886-2.183 0-1.945 1.534-3.301 1.593-1.415 3.361-1.415h1.003q1.415 0 2.298.885.885.823.885 2.181z" fill="#7da799"/>
  <path id="right-exclamation-foreground-stroke"
  d="M104.5 102.6q0 1.003-.648 3.007l-5.485 17.512q-.825 2.89-3.478 2.89-2.36 0-2.36-2.477v-.411l2.065-17.514q.117-1.298.295-1.946.412-2.005 2.063-3.362 1.652-1.354 3.715-1.354 1.77 0 2.771 1.06 1.062 1.003 1.062 2.594z" fill="#7da799"/>
  <path id="right-exclamation-foreground-dot"
  d="M97.777 132.732q0 1.768-1.415 3.241-1.415 1.475-3.42 1.475h-1.001q-1.417 0-2.36-.883-.885-.885-.885-2.184 0-1.944 1.533-3.3 1.594-1.416 3.362-1.416h1.003q1.415 0 2.298.885.885.823.885 2.182z" fill="#7da799"/>
</svg>
