<?xml version="1.0" standalone="no"?>
<!DOCTYPE svg PUBLIC "-//W3C//DTD SVG 20010904//EN"
 "http://www.w3.org/TR/2001/REC-SVG-20010904/DTD/svg10.dtd">
<svg version="1.0" xmlns="http://www.w3.org/2000/svg"
 width="700.000000pt" height="700.000000pt" viewBox="0 0 700.000000 700.000000"
 preserveAspectRatio="xMidYMid meet">
<metadata>
Created by potrace 1.14, written by Peter Selinger 2001-2017
</metadata>
<g transform="translate(0.000000,700.000000) scale(0.100000,-0.100000)"
fill="#000000" stroke="none">
<path d="M4209 6246 c-2 -2 -56 -6 -119 -10 -215 -11 -81 20 -1300 -306 -118
-32 -269 -72 -335 -89 -587 -156 -622 -167 -775 -239 -279 -130 -523 -345
-694 -609 -59 -91 -137 -248 -166 -333 -12 -36 -26 -74 -30 -85 -10 -22 -46
-181 -55 -235 -25 -159 -25 -394 0 -520 3 -14 8 -41 11 -60 13 -78 86 -346
100 -367 38 -60 84 -66 214 -30 52 15 257 70 455 122 464 124 514 139 557 172
62 47 104 128 112 212 3 33 -24 146 -109 456 -7 28 -23 86 -35 130 -31 112
-30 177 3 245 58 123 87 138 417 224 130 34 231 61 1020 273 195 52 362 96
370 98 8 2 42 11 75 19 78 21 123 20 187 -4 106 -39 169 -131 202 -294 14 -66
128 -476 140 -502 23 -51 75 -103 130 -132 88 -45 140 -39 511 62 176 48 327
89 335 91 24 5 246 65 322 86 70 20 102 48 115 97 7 29 -62 293 -114 432 -77
208 -193 393 -350 560 -288 306 -676 492 -1098 526 -44 3 -83 8 -86 10 -3 2
-8 2 -10 0z"/>
<path d="M2726 4520 c-61 -24 -101 -62 -128 -119 -18 -39 -20 -65 -20 -287 -1
-171 -4 -244 -12 -245 -6 0 -36 -2 -67 -4 -82 -4 -144 -42 -278 -171 -64 -61
-132 -127 -152 -145 -20 -19 -88 -82 -150 -140 -63 -59 -130 -121 -149 -139
-19 -18 -91 -85 -160 -150 -69 -64 -137 -128 -151 -141 -25 -22 -171 -159
-348 -324 -146 -136 -183 -177 -204 -223 -22 -47 -22 -52 -23 -791 0 -409 3
-767 7 -795 13 -76 61 -165 121 -221 61 -57 91 -75 168 -101 52 -17 150 -18
2115 -18 1133 0 2082 3 2109 7 54 7 155 54 198 91 45 40 95 113 119 173 l23
58 2 766 c1 741 0 767 -19 819 -20 54 -52 90 -202 230 -83 76 -330 307 -429
400 -85 79 -83 78 -236 220 -68 63 -142 132 -164 153 -23 21 -70 66 -106 99
-36 34 -117 111 -181 172 -137 132 -194 166 -282 171 -34 2 -65 4 -69 4 -3 1
-7 112 -7 247 -1 180 -5 254 -15 277 -80 193 -354 185 -422 -12 -8 -24 -12
-111 -12 -270 0 -145 -4 -236 -10 -240 -8 -5 -471 -7 -544 -2 -17 1 -18 20
-18 239 -1 172 -5 247 -14 275 -43 120 -173 182 -290 137z m1332 -1271 c31
-29 64 -60 73 -68 21 -21 265 -250 298 -280 14 -13 78 -72 141 -131 63 -59
131 -122 150 -140 19 -18 93 -87 165 -154 71 -66 157 -146 189 -176 33 -30 71
-67 85 -81 l26 -27 -1 -558 0 -559 -1866 -3 c-1771 -2 -1866 -1 -1869 15 -3
10 -4 265 -4 566 1 394 4 550 12 555 7 4 47 41 90 82 104 100 326 306 355 331
13 11 55 51 93 87 39 37 104 99 146 137 41 39 111 104 154 145 267 251 328
306 346 310 11 3 321 4 690 4 l669 -1 58 -54z"/>
<path d="M2667 2885 c-53 -18 -103 -59 -131 -108 -30 -53 -38 -87 -51 -231 -3
-34 -7 -68 -10 -76 -3 -14 -8 -52 -20 -175 -3 -27 -7 -61 -10 -75 -2 -14 -7
-54 -10 -90 -4 -36 -9 -78 -11 -95 -3 -16 -7 -70 -10 -120 -5 -82 -4 -92 15
-112 41 -43 117 -42 170 3 31 26 50 77 154 414 25 80 66 210 91 290 55 176 64
217 59 260 -4 37 -42 93 -75 111 -31 17 -118 19 -161 4z"/>
<path d="M4119 2864 c-50 -15 -117 -71 -141 -119 -17 -32 -34 -109 -43 -190
-3 -27 -7 -70 -10 -95 -3 -25 -8 -65 -11 -90 -5 -51 -20 -171 -29 -245 -4 -27
-8 -63 -10 -80 -1 -16 -6 -61 -11 -100 -4 -38 -8 -76 -7 -82 0 -7 1 -24 2 -38
3 -61 81 -92 155 -61 60 25 65 36 221 541 24 77 60 192 80 255 19 63 36 136
36 162 2 117 -102 180 -232 142z"/>
<path d="M2375 1601 c-78 -37 -125 -102 -125 -175 0 -89 47 -129 154 -130 61
0 79 4 119 27 108 63 135 209 50 271 -38 28 -144 31 -198 7z"/>
<path d="M3855 1593 c-37 -8 -114 -67 -134 -104 -41 -73 -29 -147 32 -193 19
-14 44 -20 89 -22 79 -2 120 12 165 56 84 82 87 194 7 247 -25 16 -116 25
-159 16z"/>
</g>
</svg>
